<!DOCTYPE svg PUBLIC "-//W3C//DTD SVG 1.1//EN" "http://www.w3.org/Graphics/SVG/1.1/DTD/svg11.dtd">
<!-- Uploaded to: SVG Repo, www.svgrepo.com, Transformed by: SVG Repo Mixer Tools -->
<svg fill="#cc0e74" version="1.1" id="Capa_1" xmlns="http://www.w3.org/2000/svg" xmlns:xlink="http://www.w3.org/1999/xlink" width="800px" height="800px" viewBox="0 0 375.226 375.226" xml:space="preserve" stroke="#cc0e74">
<g id="SVGRepo_bgCarrier" stroke-width="0"/>
<g id="SVGRepo_tracerCarrier" stroke-linecap="round" stroke-linejoin="round"/>
<g id="SVGRepo_iconCarrier"> <g> <path d="M219.353,88.037h-1.979c-11.643,0-21.117,9.472-21.117,21.114v30.16c-6.129-0.898-12.258-0.822-18.289,0.131v-30.284 c0-11.643-9.478-21.114-21.117-21.114h-1.985c-11.639,0-21.111,9.472-21.111,21.114v61.129c-5.2,9.255-7.937,19.646-7.937,30.187 c0,34.075,27.715,61.787,61.79,61.787c34.078,0,61.79-27.712,61.79-61.787c0-11.271-3.081-22.268-8.933-31.932v-59.378 C240.47,97.508,230.99,88.037,219.353,88.037z M187.607,249.789c-27.191,0-49.319-22.128-49.319-49.322 c0-8.865,2.436-17.604,7.051-25.297l0.892-1.48v-64.539c0-4.765,3.879-8.644,8.641-8.644h1.985c4.768,0,8.647,3.878,8.647,8.644 v46.463l8.019-2.399c8.835-2.646,18.101-2.779,27.295-0.225l7.916,2.208v-46.046c0-4.765,3.879-8.644,8.646-8.644h1.979 c4.769,0,8.647,3.878,8.647,8.644v63.013l0.992,1.553c5.194,8.011,7.928,17.264,7.928,26.75 C236.926,227.661,214.804,249.789,187.607,249.789z"/> <path d="M206.901,210.393c-2.582,0-4.677,2.094-4.677,4.676l0,0c0,2.74-2.229,4.969-4.969,4.969c-2.746,0-4.972-2.229-4.972-4.969 l0,0c0-0.354-0.125-0.657-0.197-0.986c1.187-1.169,1.942-2.776,1.942-4.579c0-3.55-2.871-3.642-6.421-3.642 c-3.547,0-6.421,0.092-6.421,3.642c0,1.803,0.749,3.41,1.945,4.579c-0.076,0.329-0.201,0.633-0.201,0.986l0,0 c0,2.74-2.226,4.969-4.969,4.969s-4.969-2.229-4.969-4.969l0,0c0-2.582-2.095-4.676-4.677-4.676s-4.676,2.094-4.676,4.676 c0,7.904,6.421,14.322,14.322,14.322c3.729,0,7.097-1.462,9.645-3.8c2.551,2.338,5.916,3.8,9.648,3.8 c7.897,0,14.322-6.418,14.322-14.322C211.578,212.486,209.483,210.393,206.901,210.393z"/> <path d="M163.933,193.251c-5.386,0-5.386,8.354,0,8.354C169.322,201.605,169.322,193.251,163.933,193.251z"/> <path d="M208.502,193.251c-5.389,0-5.389,8.354,0,8.354S213.891,193.251,208.502,193.251z"/> <path d="M236.866,0c-4.573,0-7.271,0.368-7.764,0.438l-7.173,1.066l-0.749,7.219c-3.478,33.566-28.189,35.262-33.18,35.262h-0.841 c-4.92,0-29.636-1.695-33.109-35.262l-0.749-7.219l-7.183-1.066C145.625,0.362,142.931,0,138.361,0 C122.575,0,80.992,4.579,36.03,47.002c-5.751,5.425-6.816,14.873-2.433,21.495l25.091,38.06c3.416,5.176,9.727,7.932,15.932,7.003 c-9.167,41.035-25.243,139.505-0.426,248.325c1.735,7.604,8.948,13.341,16.772,13.341h70.147c6.598,0,13.938-4.037,17.473-9.608 l9.027-14.236l9.015,14.224c3.525,5.578,10.875,9.621,17.482,9.621h70.146c7.837,0,15.04-5.736,16.782-13.348 c24.812-108.813,8.731-207.284-0.433-248.318c0.815,0.122,1.632,0.186,2.454,0.186c5.468,0,10.51-2.694,13.487-7.2l25.075-38.042 c4.391-6.635,3.324-16.082-2.424-21.507C294.238,4.585,252.655,0,236.866,0z M302.269,94.223l-31.213-17.36l6.576,22.024 c0.365,1.208,35.841,122.685,5.438,257.644h-68.844c-0.505-0.061-1.528-0.627-1.79-0.925l-13.591-21.422 c-2.631-4.153-6.723-6.527-11.238-6.527c-4.518,0-8.616,2.387-11.234,6.527l-13.524,21.324c-0.332,0.39-1.355,0.962-1.742,1.022 H92.145c-30.339-134.734,5.072-256.435,5.438-257.65l6.555-22.006L72.949,94.223L50.044,59.491 c38.054-35.335,72.104-40.417,86.627-40.758c7.127,34.461,34.459,43.97,50.482,43.97h0.91c16.018,0,43.352-9.502,50.477-43.97 c14.517,0.341,48.573,5.422,86.63,40.758L302.269,94.223z"/> </g> </g>
</svg>